<?xml version="1.0" standalone="no"?>
<!DOCTYPE svg PUBLIC "-//W3C//DTD SVG 20010904//EN"
 "http://www.w3.org/TR/2001/REC-SVG-20010904/DTD/svg10.dtd">
<svg version="1.0" xmlns="http://www.w3.org/2000/svg"
 width="500.000000pt" height="468.000000pt" viewBox="0 0 500.000000 468.000000"
 preserveAspectRatio="xMidYMid meet">

<g transform="translate(0.000000,468.000000) scale(0.100000,-0.100000)"
fill="#000000" stroke="none">
<path d="M2269 3613 c-33 -71 -64 -137 -69 -148 -53 -118 -95 -208 -115 -245
l-24 -45 -358 -5 c-197 -3 -358 -7 -359 -8 -1 -1 -12 -11 -25 -23 -20 -17 -24
-31 -27 -95 -3 -57 0 -80 12 -99 l16 -25 312 0 311 0 53 54 c113 115 269 203
419 236 112 24 294 27 392 5 164 -37 323 -125 438 -244 l49 -51 308 0 308 0
16 25 c12 19 15 43 12 101 -6 121 19 114 -404 114 l-354 0 -14 23 c-8 12 -40
78 -71 147 -31 69 -68 148 -81 177 -13 28 -24 54 -24 57 0 3 -18 43 -40 90
l-39 86 -291 0 -291 0 -60 -127z m443 -52 c33 -37 38 -105 11 -152 -40 -67
-140 -77 -197 -20 -27 27 -31 38 -31 85 0 44 5 59 25 81 34 37 57 45 114 41
41 -3 55 -9 78 -35z"/>
<path d="M2580 3522 c-45 -36 -17 -112 41 -112 52 0 80 78 41 113 -24 22 -54
21 -82 -1z m48 -39 c-3 -42 -21 -51 -26 -15 -4 29 4 52 18 52 7 0 10 -15 8
-37z"/>
<path d="M1402 3328 l3 -93 278 -3 c217 -2 278 0 282 10 2 7 5 50 7 96 l3 82
-288 0 -288 0 3 -92z"/>
<path d="M3570 3265 l0 -55 130 0 130 0 0 55 0 55 -130 0 -130 0 0 -55z"/>
<path d="M2487 3134 c-275 -49 -505 -250 -600 -522 -29 -82 -31 -96 -31 -242
-1 -175 9 -220 75 -352 98 -194 306 -361 505 -403 88 -19 279 -19 366 0 250
52 481 277 563 547 22 73 31 266 16 353 -53 302 -313 561 -622 620 -98 18
-168 18 -272 -1z m274 -258 c324 -98 468 -438 319 -751 -31 -64 -132 -185
-156 -185 -8 0 -14 -4 -14 -9 0 -10 -127 -65 -185 -80 -147 -39 -345 21 -467
142 -41 41 -99 127 -122 180 -23 55 -39 176 -32 241 21 211 167 394 364 457
70 22 227 25 293 5z"/>
<path d="M2475 2766 c-201 -63 -332 -307 -269 -502 29 -89 64 -143 64 -98 0 9
-7 41 -16 72 -12 41 -15 78 -11 136 12 173 91 281 265 361 34 16 62 33 62 37
0 12 -49 9 -95 -6z"/>
<path d="M2933 2613 c48 -76 62 -132 62 -238 0 -87 -4 -107 -27 -157 -72 -154
-194 -234 -378 -248 -78 -5 -83 -7 -57 -18 41 -17 165 -15 223 5 114 38 206
121 257 232 29 61 31 74 31 176 0 84 -4 117 -17 140 -9 17 -17 34 -17 39 0 17
-72 106 -86 106 -11 0 -8 -9 9 -37z"/>
<path d="M1311 2847 c-6 -8 -14 -28 -17 -45 -6 -27 -3 -33 19 -41 14 -6 137
-11 272 -12 l246 -1 39 56 39 56 -293 0 c-234 0 -296 -3 -305 -13z m159 -23
c0 -2 -7 -4 -15 -4 -8 0 -15 4 -15 10 0 5 7 7 15 4 8 -4 15 -8 15 -10z m154
-19 c-4 -17 -10 -23 -16 -17 -6 6 -6 18 2 32 15 28 23 20 14 -15z m85 -4 c-1
-13 -2 -13 -6 2 -2 9 -9 17 -14 17 -5 0 -9 5 -9 11 0 8 5 8 15 -1 8 -7 14 -20
14 -29z m93 21 c-7 -2 -12 -8 -12 -13 0 -4 7 -6 15 -3 8 3 22 -1 30 -10 15
-15 15 -16 -7 -14 -15 2 -22 -2 -20 -11 2 -9 -3 -11 -13 -7 -9 3 -22 6 -30 6
-19 0 -25 37 -9 51 12 10 13 9 8 -5 -3 -9 -1 -16 4 -16 6 0 14 9 17 20 4 12
11 17 18 13 8 -5 8 -8 -1 -11z m-214 -9 c-2 -9 -10 -18 -18 -20 -13 -4 -13 -3
0 6 13 10 13 12 0 21 -13 8 -12 10 3 10 12 0 17 -6 15 -17z m272 -4 c0 -6 -4
-7 -10 -4 -5 3 -10 11 -10 16 0 6 5 7 10 4 6 -3 10 -11 10 -16z m-190 -4 c0
-8 -4 -15 -10 -15 -5 0 -10 7 -10 15 0 8 5 15 10 15 6 0 10 -7 10 -15z m-214
-14 c-4 -5 0 -11 6 -13 7 -3 -2 -5 -20 -5 -33 0 -33 1 -10 13 28 16 31 17 24
5z"/>
<path d="M3350 2850 c0 -3 13 -27 28 -53 l27 -49 248 1 c136 1 254 4 262 7 17
7 21 34 5 34 -5 0 -10 -4 -10 -10 0 -5 -5 -10 -12 -10 -6 0 -2 10 10 23 20 21
21 25 6 46 l-16 22 -274 -3 c-151 -2 -274 -5 -274 -8z m187 -35 c-13 -27 -27
-33 -27 -12 0 14 19 37 31 37 4 0 2 -11 -4 -25z m48 14 c11 -17 -1 -21 -15 -4
-8 9 -8 15 -2 15 6 0 14 -5 17 -11z m31 -45 c-3 -9 -11 -12 -17 -9 -8 5 -8 10
0 18 6 6 12 20 12 32 2 17 2 17 6 -3 3 -13 2 -30 -1 -38z m164 34 c0 -10 8
-18 18 -18 14 -1 15 -2 2 -9 -23 -13 -80 -2 -73 15 3 8 0 14 -7 14 -6 0 -9 3
-7 8 3 4 19 7 36 7 23 0 31 -5 31 -17z m40 1 c0 -5 -4 -9 -10 -9 -5 0 -10 7
-10 16 0 8 5 12 10 9 6 -3 10 -10 10 -16z m60 10 c0 -8 5 -8 15 1 23 19 19 -6
-5 -30 -19 -19 -20 -19 -20 -2 0 10 -5 23 -12 30 -9 9 -8 12 5 12 9 0 17 -5
17 -11z m-466 -31 c-4 -6 -10 -5 -15 3 -14 22 -10 33 6 19 8 -7 12 -17 9 -22z
m276 22 c0 -5 -7 -7 -15 -4 -10 4 -15 0 -15 -15 0 -25 -15 -28 -24 -4 -4 9 -1
20 6 25 18 11 48 10 48 -2z m-125 -30 c3 -5 1 -10 -4 -10 -6 0 -11 5 -11 10 0
6 2 10 4 10 3 0 8 -4 11 -10z m142 4 c-3 -3 -12 -4 -19 -1 -8 3 -5 6 6 6 11 1
17 -2 13 -5z"/>
<path d="M1333 2670 c-27 -11 -43 -40 -43 -79 0 -27 3 -30 43 -36 23 -3 132
-5 241 -3 l200 3 12 55 c7 30 13 58 14 63 0 10 -440 8 -467 -3z"/>
<path d="M3443 2663 c3 -10 11 -40 18 -66 l14 -48 226 1 c220 1 227 2 232 22
7 26 -6 61 -33 88 -19 19 -32 20 -241 20 -205 0 -220 -1 -216 -17z"/>
<path d="M1327 2462 c-29 -18 -41 -45 -35 -83 4 -33 29 -36 261 -38 181 -1
197 0 197 17 0 9 3 41 6 70 l7 52 -204 0 c-175 0 -208 -3 -232 -18z"/>
<path d="M3488 2473 c-2 -5 -2 -36 0 -70 l4 -63 196 0 c109 0 207 3 219 6 29
8 38 38 23 74 -23 56 -41 60 -249 60 -104 0 -191 -3 -193 -7z"/>
<path d="M1335 2258 c-31 -18 -44 -40 -45 -75 0 -41 0 -41 278 -47 l214 -4 -5
21 c-3 12 -9 43 -12 70 l-7 47 -202 0 c-132 -1 -208 -5 -221 -12z"/>
<path d="M3476 2228 c-4 -24 -9 -53 -13 -65 l-5 -23 230 0 c191 0 232 2 242
15 17 20 5 62 -27 91 -26 24 -28 24 -223 24 l-197 0 -7 -42z"/>
<path d="M3453 2062 c-17 -2 -31 -21 -53 -68 -16 -36 -30 -67 -30 -70 0 -3 12
-3 28 0 15 2 141 5 280 5 l252 1 0 40 c0 55 -31 86 -96 94 -49 6 -339 5 -381
-2z"/>
<path d="M1314 2035 c-20 -20 -25 -34 -22 -63 l3 -37 288 -5 c158 -3 287 -5
287 -4 0 0 -6 14 -14 30 -8 16 -22 46 -31 67 l-17 37 -235 0 -234 0 -25 -25z"/>
<path d="M1296 1843 c-3 -4 -6 -53 -6 -110 l0 -103 428 0 427 0 -45 37 c-52
43 -135 128 -157 161 l-16 23 -312 -1 c-172 -1 -316 -4 -319 -7z"/>
<path d="M3230 1759 c-46 -50 -94 -96 -107 -102 -13 -6 -23 -14 -23 -19 0 -4
189 -8 420 -8 l421 0 -3 108 -3 107 -310 2 -310 2 -85 -90z"/>
<path d="M3895 1346 c-43 -19 -68 -60 -60 -97 7 -31 65 -79 96 -79 9 0 24 -9
35 -21 15 -17 16 -22 4 -29 -8 -5 -28 -6 -45 -2 -61 13 -90 9 -93 -14 -5 -38
41 -64 113 -64 52 0 66 4 89 25 24 22 27 31 24 77 l-3 51 -63 33 c-35 17 -62
36 -60 40 2 5 26 9 53 9 49 0 50 1 53 31 3 35 -3 39 -69 48 -28 4 -55 1 -74
-8z"/>
<path d="M1010 1195 l0 -155 40 0 40 0 0 50 c0 49 0 50 31 50 49 0 96 34 103
75 19 98 -19 135 -138 135 l-76 0 0 -155z m130 71 c0 -2 3 -11 6 -19 7 -19
-22 -48 -41 -41 -9 4 -15 19 -15 35 0 24 4 29 25 29 14 0 25 -2 25 -4z"/>
<path d="M1270 1196 l0 -156 40 0 39 0 3 58 3 57 41 3 c39 3 42 1 48 -29 3
-17 6 -44 6 -60 0 -27 3 -29 40 -29 l41 0 -3 153 -3 152 -37 3 -38 3 0 -59 c0
-65 -7 -72 -72 -72 -26 0 -27 2 -30 63 l-3 62 -37 3 -38 3 0 -155z"/>
<path d="M1620 1324 c-17 -15 -37 -42 -45 -61 -57 -136 74 -275 190 -203 88
55 99 177 22 251 -35 34 -45 39 -87 39 -38 0 -55 -6 -80 -26z m117 -76 c27
-25 30 -64 7 -96 -19 -28 -57 -29 -84 -2 -26 26 -25 60 1 94 25 32 45 33 76 4z"/>
<path d="M1842 1313 c3 -35 6 -38 33 -38 23 0 30 -5 32 -20 1 -11 5 -64 8
-117 l7 -98 34 0 34 0 0 115 c0 119 0 120 44 115 23 -2 36 16 36 53 l0 27
-116 0 -115 0 3 -37z"/>
<path d="M2130 1324 c-70 -59 -80 -175 -20 -234 56 -56 114 -65 171 -26 44 30
69 80 69 136 0 118 -136 194 -220 124z m117 -76 c27 -25 30 -64 7 -96 -19 -28
-57 -29 -84 -2 -26 26 -25 60 1 94 25 32 45 33 76 4z"/>
<path d="M2437 1326 c-92 -75 -91 -195 2 -264 25 -18 43 -22 106 -22 l75 0 0
73 c0 91 -11 110 -64 105 -54 -4 -68 -29 -37 -62 30 -32 23 -61 -12 -45 -50
23 -71 94 -41 137 12 18 25 22 65 22 56 0 69 15 51 56 -10 21 -18 24 -64 24
-40 -1 -60 -6 -81 -24z"/>
<path d="M2663 1335 c-3 -9 -6 -77 -7 -153 l-1 -137 38 -3 37 -3 0 50 c0 62
20 69 39 14 21 -59 27 -63 102 -63 56 0 73 4 89 20 11 11 33 20 50 20 19 0 33
-7 40 -20 16 -29 90 -29 90 0 0 11 -4 28 -9 38 -14 29 -38 84 -66 154 -15 37
-36 75 -47 85 -19 17 -20 17 -37 -5 -9 -13 -23 -44 -30 -70 -8 -26 -17 -51
-21 -57 -3 -5 -17 -38 -30 -72 -14 -35 -27 -63 -30 -63 -10 0 -40 58 -40 77 0
10 7 27 15 37 8 11 15 41 15 67 0 43 -4 51 -33 73 -28 21 -45 26 -96 26 -46 0
-63 -4 -68 -15z m120 -85 c3 -13 -1 -24 -13 -30 -31 -16 -40 -12 -40 20 0 25
4 30 24 30 15 0 26 -7 29 -20z m227 -59 c0 -5 3 -16 6 -25 4 -11 1 -16 -10
-16 -10 0 -16 9 -16 25 0 14 5 25 10 25 6 0 10 -4 10 -9z"/>
<path d="M3140 1263 c0 -48 3 -118 7 -155 l6 -68 38 0 38 0 3 58 3 57 43 3 42
3 0 -60 0 -61 40 0 40 0 2 125 c1 69 2 137 2 153 1 25 -2 27 -41 30 l-43 3 0
-59 c0 -64 -7 -71 -67 -72 -20 0 -22 6 -25 63 l-3 62 -42 3 -43 3 0 -88z"/>
<path d="M3450 1194 l0 -155 38 3 c37 3 37 3 40 51 3 45 4 47 34 47 96 0 144
125 71 187 -22 20 -38 23 -105 23 l-78 0 0 -156z m130 72 c0 -2 3 -11 6 -19 7
-19 -22 -48 -41 -41 -9 4 -15 19 -15 35 0 24 4 29 25 29 14 0 25 -2 25 -4z"/>
<path d="M3708 1298 c-1 -29 -1 -71 -1 -93 1 -22 2 -68 2 -102 l1 -63 34 0
c31 0 34 3 40 38 3 20 6 90 6 155 l0 117 -40 0 -40 0 -2 -52z"/>
<path d="M4110 1195 l0 -155 40 0 40 0 0 65 c0 51 3 65 15 65 8 0 15 -7 15
-15 0 -8 4 -15 9 -15 5 0 12 -10 15 -22 6 -22 8 -21 44 20 20 23 40 42 45 42
4 0 7 -31 7 -70 l0 -70 40 0 40 0 0 155 0 155 -33 0 c-34 0 -70 -29 -96 -79
-21 -39 -48 -27 -90 42 -19 31 -28 37 -57 37 l-34 0 0 -155z"/>
<path d="M2248 667 c-21 -8 -28 -18 -28 -38 0 -30 12 -38 85 -53 62 -14 69
-39 12 -44 -28 -2 -42 2 -52 14 -10 14 -18 16 -34 9 -20 -9 -20 -12 -6 -32 19
-27 63 -37 121 -28 29 4 48 13 55 26 22 43 -14 75 -91 81 -23 2 -35 8 -35 18
0 21 49 25 68 6 22 -23 57 -21 57 3 0 39 -92 62 -152 38z"/>
<path d="M2890 652 c0 -26 -2 -27 -44 -24 -36 3 -46 0 -60 -19 -21 -31 -20
-75 3 -98 14 -14 33 -18 85 -18 l66 0 0 93 c0 94 0 94 -25 94 -21 0 -25 -5
-25 -28z m-2 -90 c3 -32 2 -33 -30 -30 -22 2 -34 9 -36 21 -5 25 17 49 42 45
16 -2 22 -11 24 -36z"/>
<path d="M2990 665 c0 -9 9 -15 25 -15 16 0 25 6 25 15 0 9 -9 15 -25 15 -16
0 -25 -6 -25 -15z"/>
<path d="M2456 646 c-27 -24 -34 -46 -16 -46 6 0 10 -20 10 -45 0 -48 21 -69
63 -63 29 4 36 38 8 38 -17 0 -21 6 -21 35 0 28 4 35 20 35 11 0 20 7 20 15 0
8 -9 15 -20 15 -13 0 -20 7 -20 20 0 26 -13 25 -44 -4z"/>
<path d="M2570 576 c0 -73 12 -83 94 -83 l66 0 0 68 c0 67 -1 69 -25 69 -23 0
-25 -3 -25 -51 0 -49 -1 -50 -27 -47 -26 3 -28 7 -31 51 -3 42 -5 47 -28 47
-22 0 -24 -3 -24 -54z"/>
<path d="M2990 560 c0 -68 1 -70 25 -70 24 0 25 2 25 70 0 68 -1 70 -25 70
-24 0 -25 -2 -25 -70z"/>
<path d="M3101 604 c-26 -33 -26 -55 -2 -85 16 -20 29 -24 71 -24 42 0 55 4
71 24 24 30 24 52 -2 85 -17 22 -28 26 -69 26 -41 0 -52 -4 -69 -26z m99 -19
c17 -21 3 -52 -26 -58 -20 -3 -28 1 -36 19 -19 42 32 75 62 39z"/>
</g>
</svg>
